<svg xmlns="http://www.w3.org/2000/svg" width="117" height="40"><path fill="#8AC4EB" d="M30.02 0l-7.725 8.049h19.084L49.104 0H30.02z"/><path fill="none" stroke="#28234A" stroke-width="1.218" stroke-linecap="round" stroke-linejoin="round" d="M14.054 3.331l-7.237 7.216h25.099l7.237-7.216H14.054z"/><path d="M6.151 21.732v5.25c0 .926.177 1.603.53 2.031.353.428.872.643 1.555.643.693 0 1.22-.213 1.583-.637.363-.424.543-1.099.543-2.022v-5.265H9.159v-1.284h4.033v1.284h-1.285v5.408c0 1.229-.311 2.168-.933 2.812-.622.646-1.535.968-2.738.968-1.212 0-2.123-.32-2.731-.96-.608-.642-.913-1.61-.913-2.909v-5.318H3.321v-1.284h4.047v1.284H6.151v-.001zm14.711 4.185v3.575h1.203v1.258h-2.618v-4.744c0-.451-.065-.773-.195-.971s-.343-.294-.639-.294c-.629 0-1.335.31-2.119.93v3.821h1.237v1.258h-3.896v-1.258H15.1V24.83h-1.265v-1.266h2.659v.869c.879-.644 1.707-.965 2.481-.965.643 0 1.118.198 1.425.596.307.397.462 1.014.462 1.853zm6.693-4.026l-1.258.191c-.041-.465-.219-.697-.533-.697-.223 0-.373.08-.448.239-.075.159-.113.444-.113.854v1.086h1.23v1.266h-1.23v4.662h1.354v1.258h-3.821v-1.258h1.053V24.83h-1.053v-1.266h1.053v-1.113c0-.656.161-1.189.482-1.6.321-.412.796-.615 1.425-.615.52 0 .938.138 1.254.414.316.276.518.689.605 1.241z"/><path d="M30.508 29.643c.633 0 1.319-.308 2.058-.923v-3.89h-1.271v-1.266h2.687v5.928h1.23v1.258h-2.646v-.827c-.83.634-1.618.95-2.365.95-.674 0-1.172-.2-1.494-.602-.322-.402-.482-1.066-.482-1.996V24.83H27.22v-1.266h2.42v5.004c0 .369.067.642.202.813.135.174.356.262.666.262zm8.162-1.778v1.627h1.565v1.258h-4.409v-1.258h1.442V24.83h-1.442v-1.266h2.563v1.627c.287-.643.644-1.09 1.07-1.342.426-.255 1.036-.381 1.829-.381h.321v1.43h-.308c-.766 0-1.335.101-1.709.301a1.469 1.469 0 00-.742.908c-.121.407-.18.993-.18 1.758zm7.239 1.627v1.258h-3.78v-1.258H43.4v-7.801h-1.271v-1.243h2.687v9.044h1.093zm11.855-6.385c0 .481-.107.908-.322 1.277a2.087 2.087 0 01-.937.848c.579.205 1.021.525 1.33.961.308.436.461.951.461 1.549 0 .979-.358 1.727-1.075 2.238-.72.514-1.793.77-3.225.77h-3.568v-1.285h1.271v-7.73h-1.271V20.45h3.623c1.254 0 2.186.219 2.797.656.609.436.916 1.103.916 2.001zm-1.539.082c0-.483-.17-.848-.513-1.09-.342-.244-.825-.367-1.448-.367h-1.02v3.009h1.031c1.3 0 1.95-.516 1.95-1.552zm.492 4.526c0-.568-.201-.994-.604-1.275-.404-.278-1.029-.42-1.877-.42h-.991v3.445h.614c.615 0 1.121-.037 1.519-.113.396-.074.72-.237.968-.492.247-.253.371-.633.371-1.145zm8.709-1.613v3.392h1.203v1.258h-2.447v-.882c-.684.67-1.443 1.005-2.283 1.005-.441 0-.846-.103-1.213-.308s-.66-.479-.881-.823a2.067 2.067 0 01-.332-1.146c0-.451.121-.854.364-1.207.244-.354.573-.625.988-.816s.832-.287 1.251-.287c.701 0 1.355.205 1.962.615v-.773c0-.562-.118-.962-.354-1.203-.238-.241-.627-.362-1.17-.362-.383 0-.703.069-.959.209-.259.14-.472.351-.641.633l-1.354-.336c.306-.568.717-.994 1.236-1.273.52-.281 1.137-.421 1.854-.421.961 0 1.664.219 2.107.656.447.435.669 1.125.669 2.069zm-3.336 3.684c.692 0 1.342-.289 1.948-.868v-.841c-.615-.479-1.229-.718-1.847-.718a1.43 1.43 0 00-.967.352c-.271.234-.406.53-.406.887 0 .342.117.625.354.851.239.225.544.337.918.337zm6.918-.198h3.295v-1.482h1.23v2.646h-6.174V29.59l4.479-4.847h-2.939v1.374h-1.203v-2.55h5.839v1.265l-4.527 4.756zm11.621-3.486v3.392h1.203v1.258h-2.447v-.882c-.684.67-1.443 1.005-2.283 1.005-.441 0-.847-.103-1.213-.308a2.456 2.456 0 01-.882-.823 2.076 2.076 0 01-.332-1.146c0-.451.122-.854.365-1.207a2.38 2.38 0 01.987-.816 2.974 2.974 0 011.252-.287c.701 0 1.354.205 1.962.615v-.773c0-.562-.118-.962-.354-1.203-.238-.241-.628-.362-1.17-.362-.383 0-.703.069-.96.209a1.68 1.68 0 00-.64.633l-1.354-.336c.305-.568.717-.994 1.236-1.273.52-.281 1.137-.421 1.854-.421.961 0 1.664.219 2.107.656.447.435.669 1.125.669 2.069zm-3.336 3.684c.691 0 1.342-.289 1.948-.868v-.841c-.615-.479-1.229-.718-1.847-.718a1.43 1.43 0 00-.967.352c-.271.234-.406.53-.406.887 0 .342.117.625.354.851s.544.337.918.337zm11.457-3.684v3.392h1.203v1.258h-2.447v-.882c-.684.67-1.443 1.005-2.283 1.005a2.461 2.461 0 01-2.095-1.131 2.076 2.076 0 01-.332-1.146c0-.451.122-.854.365-1.207.243-.354.573-.625.987-.816a2.974 2.974 0 011.252-.287c.701 0 1.354.205 1.961.615v-.773c0-.562-.117-.962-.354-1.203s-.627-.362-1.169-.362c-.383 0-.703.069-.96.209a1.68 1.68 0 00-.64.633l-1.354-.336c.306-.568.718-.994 1.237-1.273.52-.281 1.137-.421 1.854-.421.961 0 1.664.219 2.107.656.445.435.668 1.125.668 2.069zm-3.336 3.684c.691 0 1.342-.289 1.947-.868v-.841c-.614-.479-1.229-.718-1.846-.718-.373 0-.695.117-.967.352s-.406.53-.406.887c0 .342.117.625.354.851s.544.337.918.337zm7.957-1.921v1.627h1.564v1.258h-4.408v-1.258h1.441V24.83h-1.441v-1.266h2.562v1.627c.287-.643.645-1.09 1.07-1.342.426-.255 1.035-.381 1.828-.381h.32v1.43h-.308c-.767 0-1.335.101-1.709.301a1.469 1.469 0 00-.742.908c-.116.407-.177.993-.177 1.758z"/></svg>