<svg xmlns="http://www.w3.org/2000/svg" width="117" height="40"><path fill="#8AC4EB" d="M30.02 0l-7.725 8.049h19.084L49.104 0H30.02z"/><path fill="none" stroke="#28234A" stroke-width="1.218" stroke-linecap="round" stroke-linejoin="round" d="M14.054 3.331l-7.237 7.216h25.099l7.237-7.216H14.054z"/><path d="M16.151 18.733v5.25c0 .925.177 1.602.53 2.03s.872.643 1.555.643c.693 0 1.22-.212 1.583-.636s.543-1.099.543-2.023v-5.264h-1.203v-1.285h4.033v1.285h-1.285v5.407c0 1.23-.311 2.168-.933 2.812-.622.646-1.535.968-2.738.968-1.212 0-2.123-.32-2.731-.96-.608-.641-.913-1.61-.913-2.909v-5.318h-1.271v-1.285h4.047v1.285h-1.217zm14.711 4.184v3.575h1.203v1.258h-2.618v-4.744c0-.451-.065-.774-.195-.971s-.343-.294-.639-.294c-.629 0-1.335.31-2.119.93v3.821h1.237v1.258h-3.896v-1.258H25.1V21.83h-1.265v-1.265h2.659v.868c.879-.643 1.707-.964 2.481-.964.643 0 1.118.198 1.425.595s.462 1.014.462 1.853zm6.693-4.026l-1.258.191c-.041-.465-.219-.697-.533-.697-.223 0-.373.08-.448.239s-.113.444-.113.854v1.087h1.23v1.265h-1.23v4.662h1.354v1.258h-3.821v-1.258h1.053V21.83h-1.053v-1.265h1.053v-1.114c0-.656.161-1.189.482-1.6s.796-.615 1.425-.615c.52 0 .938.138 1.254.414s.518.689.605 1.241z"/><path d="M40.508 26.643c.633 0 1.319-.308 2.058-.923v-3.89h-1.271v-1.265h2.687v5.927h1.23v1.258h-2.646v-.827c-.83.634-1.618.95-2.365.95-.674 0-1.172-.2-1.494-.602s-.482-1.066-.482-1.996V21.83H37.22v-1.265h2.42v5.004c0 .369.067.641.202.813s.356.261.666.261zm8.162-1.778v1.627h1.565v1.258h-4.409v-1.258h1.442V21.83h-1.442v-1.265h2.563v1.627c.287-.643.644-1.091 1.07-1.343.426-.254 1.036-.38 1.829-.38h.321v1.429h-.308c-.766 0-1.335.101-1.709.301s-.621.504-.742.909-.18.992-.18 1.757zm7.239 1.627v1.258h-3.78v-1.258H53.4v-7.8h-1.271v-1.244h2.687v9.044h1.093zm11.854-6.385c0 .482-.107.909-.321 1.278s-.526.651-.937.848c.579.205 1.021.525 1.33.96.307.436.461.952.461 1.549 0 .979-.359 1.727-1.076 2.238-.719.514-1.793.77-3.224.77h-3.568v-1.285h1.271v-7.731h-1.271v-1.285h3.623c1.253 0 2.186.219 2.796.656s.916 1.104.916 2.002zm-1.538.082c0-.483-.171-.847-.513-1.09s-.825-.366-1.449-.366h-1.019v3.008h1.032c1.299 0 1.949-.517 1.949-1.552zm.492 4.526c0-.569-.202-.994-.604-1.275-.404-.279-1.029-.42-1.877-.42h-.991v3.445h.615c.615 0 1.121-.037 1.518-.113.396-.074.719-.238.968-.492.247-.253.371-.634.371-1.145zm8.709-1.613v3.391h1.203v1.258h-2.447v-.882c-.684.67-1.444 1.005-2.283 1.005-.442 0-.847-.103-1.214-.308a2.453 2.453 0 01-.881-.823 2.073 2.073 0 01-.332-1.146c0-.451.122-.854.365-1.206.244-.354.573-.626.988-.817s.832-.287 1.251-.287c.702 0 1.355.205 1.962.615v-.772c0-.561-.118-.962-.355-1.203s-.627-.362-1.169-.362c-.383 0-.703.069-.96.208a1.68 1.68 0 00-.64.633l-1.354-.335c.306-.569.718-.995 1.237-1.274.52-.281 1.137-.421 1.853-.421.962 0 1.665.219 2.108.656.446.436.668 1.126.668 2.07zm-3.336 3.684c.692 0 1.342-.289 1.948-.868v-.841c-.615-.479-1.23-.718-1.846-.718-.374 0-.696.117-.967.352s-.407.53-.407.886c0 .342.118.626.355.851.238.226.543.338.917.338zm6.918-.198h3.295v-1.483h1.23v2.646H77.36v-1.162l4.478-4.847h-2.939v1.374h-1.203v-2.55h5.838v1.265l-4.526 4.757zm11.621-3.486v3.391h1.203v1.258h-2.447v-.882c-.684.67-1.444 1.005-2.283 1.005-.442 0-.847-.103-1.214-.308a2.453 2.453 0 01-.881-.823 2.073 2.073 0 01-.332-1.146c0-.451.122-.854.365-1.206.244-.354.573-.626.988-.817s.832-.287 1.251-.287c.702 0 1.355.205 1.962.615v-.772c0-.561-.118-.962-.355-1.203s-.627-.362-1.169-.362c-.383 0-.703.069-.96.208a1.68 1.68 0 00-.64.633l-1.354-.335c.306-.569.718-.995 1.237-1.274.52-.281 1.137-.421 1.853-.421.962 0 1.665.219 2.108.656.446.436.668 1.126.668 2.07zm-3.336 3.684c.692 0 1.342-.289 1.948-.868v-.841c-.615-.479-1.23-.718-1.846-.718-.374 0-.696.117-.967.352s-.407.53-.407.886c0 .342.118.626.355.851.238.226.543.338.917.338zm11.457-3.684v3.391h1.203v1.258h-2.447v-.882c-.684.67-1.444 1.005-2.283 1.005-.442 0-.847-.103-1.214-.308a2.453 2.453 0 01-.881-.823 2.073 2.073 0 01-.332-1.146c0-.451.122-.854.365-1.206.244-.354.573-.626.988-.817s.832-.287 1.251-.287c.702 0 1.355.205 1.962.615v-.772c0-.561-.118-.962-.355-1.203s-.627-.362-1.169-.362c-.383 0-.703.069-.96.208a1.68 1.68 0 00-.64.633l-1.354-.335c.306-.569.718-.995 1.237-1.274.52-.281 1.137-.421 1.853-.421.962 0 1.665.219 2.108.656.446.436.668 1.126.668 2.07zm-3.336 3.684c.692 0 1.342-.289 1.948-.868v-.841c-.615-.479-1.23-.718-1.846-.718-.374 0-.696.117-.967.352s-.407.53-.407.886c0 .342.118.626.355.851.238.226.543.338.917.338zm7.957-1.921v1.627h1.565v1.258h-4.409v-1.258h1.442V21.83h-1.442v-1.265h2.563v1.627c.287-.643.644-1.091 1.07-1.343.426-.254 1.035-.38 1.828-.38h.321v1.429h-.308c-.766 0-1.335.101-1.709.301s-.621.504-.742.909c-.118.406-.179.992-.179 1.757z"/></svg>