<?xml version="1.0" encoding="utf-8"?>
<!-- Generator: Adobe Illustrator 16.0.0, SVG Export Plug-In . SVG Version: 6.00 Build 0)  -->
<!DOCTYPE svg PUBLIC "-//W3C//DTD SVG 1.1//EN" "http://www.w3.org/Graphics/SVG/1.1/DTD/svg11.dtd">
<svg version="1.1" id="Layer_1" xmlns="http://www.w3.org/2000/svg" xmlns:xlink="http://www.w3.org/1999/xlink" x="0px" y="0px"
	 width="117px" height="40px" viewBox="0 0 117 40" enable-background="new 0 0 117 40" xml:space="preserve">
<path fill="#8AC4EB" d="M30.02,0l-7.725,8.049h19.084L49.104,0H30.02z"/>
<path fill="none" stroke="#28234A" stroke-width="1.2182" stroke-linecap="round" stroke-linejoin="round" d="M14.054,3.331
	l-7.237,7.216h25.099l7.237-7.216H14.054z"/>
<g>
	<path d="M16.151,18.733v5.25c0,0.925,0.177,1.602,0.53,2.03s0.872,0.643,1.555,0.643c0.693,0,1.22-0.212,1.583-0.636
		s0.543-1.099,0.543-2.023v-5.264h-1.203v-1.285h4.033v1.285h-1.285v5.407c0,1.23-0.311,2.168-0.933,2.812
		c-0.622,0.646-1.535,0.968-2.738,0.968c-1.212,0-2.123-0.32-2.731-0.96c-0.608-0.641-0.913-1.61-0.913-2.909v-5.318h-1.271v-1.285
		h4.047v1.285H16.151z"/>
	<path d="M30.862,22.917v3.575h1.203v1.258h-2.618v-4.744c0-0.451-0.065-0.774-0.195-0.971s-0.343-0.294-0.639-0.294
		c-0.629,0-1.335,0.31-2.119,0.93v3.821h1.237v1.258h-3.896v-1.258H25.1V21.83h-1.265v-1.265h2.659v0.868
		c0.879-0.643,1.707-0.964,2.481-0.964c0.643,0,1.118,0.198,1.425,0.595S30.862,22.078,30.862,22.917z"/>
	<path d="M37.555,18.891l-1.258,0.191c-0.041-0.465-0.219-0.697-0.533-0.697c-0.223,0-0.373,0.08-0.448,0.239
		s-0.113,0.444-0.113,0.854v1.087h1.23v1.265h-1.23v4.662h1.354v1.258h-3.821v-1.258h1.053V21.83h-1.053v-1.265h1.053v-1.114
		c0-0.656,0.161-1.189,0.482-1.6s0.796-0.615,1.425-0.615c0.52,0,0.938,0.138,1.254,0.414S37.468,18.339,37.555,18.891z"/>
	<path d="M40.508,26.643c0.633,0,1.319-0.308,2.058-0.923v-3.89h-1.271v-1.265h2.687v5.927h1.23v1.258h-2.646v-0.827
		c-0.83,0.634-1.618,0.95-2.365,0.95c-0.674,0-1.172-0.2-1.494-0.602s-0.482-1.066-0.482-1.996V21.83H37.22v-1.265h2.42v5.004
		c0,0.369,0.067,0.641,0.202,0.813S40.198,26.643,40.508,26.643z"/>
	<path d="M48.67,24.865v1.627h1.565v1.258h-4.409v-1.258h1.442V21.83h-1.442v-1.265h2.563v1.627c0.287-0.643,0.644-1.091,1.07-1.343
		c0.426-0.254,1.036-0.38,1.829-0.38h0.321v1.429h-0.308c-0.766,0-1.335,0.101-1.709,0.301s-0.621,0.504-0.742,0.909
		S48.67,24.1,48.67,24.865z"/>
	<path d="M55.909,26.492v1.258h-3.78v-1.258H53.4v-7.8h-1.271v-1.244h2.687v9.044H55.909z"/>
	<path d="M67.763,20.107c0,0.482-0.107,0.909-0.321,1.278s-0.526,0.651-0.937,0.848c0.579,0.205,1.021,0.525,1.33,0.96
		c0.307,0.436,0.461,0.952,0.461,1.549c0,0.979-0.359,1.727-1.076,2.238c-0.719,0.514-1.793,0.77-3.224,0.77h-3.568v-1.285h1.271
		v-7.731h-1.271v-1.285h3.623c1.253,0,2.186,0.219,2.796,0.656S67.763,19.209,67.763,20.107z M66.225,20.189
		c0-0.483-0.171-0.847-0.513-1.09s-0.825-0.366-1.449-0.366h-1.019v3.008h1.032C65.575,21.741,66.225,21.224,66.225,20.189z
		 M66.717,24.715c0-0.569-0.202-0.994-0.604-1.275c-0.404-0.279-1.029-0.42-1.877-0.42h-0.991v3.445h0.615
		c0.615,0,1.121-0.037,1.518-0.113c0.396-0.074,0.719-0.238,0.968-0.492C66.593,25.607,66.717,25.226,66.717,24.715z"/>
	<path d="M75.426,23.102v3.391h1.203v1.258h-2.447v-0.882c-0.684,0.67-1.444,1.005-2.283,1.005c-0.442,0-0.847-0.103-1.214-0.308
		c-0.366-0.205-0.66-0.479-0.881-0.823c-0.222-0.345-0.332-0.727-0.332-1.146c0-0.451,0.122-0.854,0.365-1.206
		c0.244-0.354,0.573-0.626,0.988-0.817s0.832-0.287,1.251-0.287c0.702,0,1.355,0.205,1.962,0.615v-0.772
		c0-0.561-0.118-0.962-0.355-1.203s-0.627-0.362-1.169-0.362c-0.383,0-0.703,0.069-0.96,0.208c-0.258,0.14-0.471,0.351-0.64,0.633
		l-1.354-0.335c0.306-0.569,0.718-0.995,1.237-1.274c0.52-0.281,1.137-0.421,1.853-0.421c0.962,0,1.665,0.219,2.108,0.656
		C75.204,21.468,75.426,22.158,75.426,23.102z M72.09,26.786c0.692,0,1.342-0.289,1.948-0.868v-0.841
		c-0.615-0.479-1.23-0.718-1.846-0.718c-0.374,0-0.696,0.117-0.967,0.352c-0.271,0.235-0.407,0.53-0.407,0.886
		c0,0.342,0.118,0.626,0.355,0.851C71.411,26.674,71.716,26.786,72.09,26.786z"/>
	<path d="M79.008,26.588h3.295v-1.483h1.23v2.646H77.36v-1.162l4.478-4.847h-2.939v1.374h-1.203v-2.55h5.838v1.265L79.008,26.588z"
		/>
	<path d="M90.629,23.102v3.391h1.203v1.258h-2.447v-0.882c-0.684,0.67-1.444,1.005-2.283,1.005c-0.442,0-0.847-0.103-1.214-0.308
		c-0.366-0.205-0.66-0.479-0.881-0.823c-0.222-0.345-0.332-0.727-0.332-1.146c0-0.451,0.122-0.854,0.365-1.206
		c0.244-0.354,0.573-0.626,0.988-0.817s0.832-0.287,1.251-0.287c0.702,0,1.355,0.205,1.962,0.615v-0.772
		c0-0.561-0.118-0.962-0.355-1.203s-0.627-0.362-1.169-0.362c-0.383,0-0.703,0.069-0.96,0.208c-0.258,0.14-0.471,0.351-0.64,0.633
		l-1.354-0.335c0.306-0.569,0.718-0.995,1.237-1.274c0.52-0.281,1.137-0.421,1.853-0.421c0.962,0,1.665,0.219,2.108,0.656
		C90.407,21.468,90.629,22.158,90.629,23.102z M87.293,26.786c0.692,0,1.342-0.289,1.948-0.868v-0.841
		c-0.615-0.479-1.23-0.718-1.846-0.718c-0.374,0-0.696,0.117-0.967,0.352c-0.271,0.235-0.407,0.53-0.407,0.886
		c0,0.342,0.118,0.626,0.355,0.851C86.614,26.674,86.919,26.786,87.293,26.786z"/>
	<path d="M98.75,23.102v3.391h1.203v1.258h-2.447v-0.882c-0.684,0.67-1.444,1.005-2.283,1.005c-0.442,0-0.847-0.103-1.214-0.308
		c-0.366-0.205-0.66-0.479-0.881-0.823c-0.222-0.345-0.332-0.727-0.332-1.146c0-0.451,0.122-0.854,0.365-1.206
		c0.244-0.354,0.573-0.626,0.988-0.817s0.832-0.287,1.251-0.287c0.702,0,1.355,0.205,1.962,0.615v-0.772
		c0-0.561-0.118-0.962-0.355-1.203s-0.627-0.362-1.169-0.362c-0.383,0-0.703,0.069-0.96,0.208c-0.258,0.14-0.471,0.351-0.64,0.633
		l-1.354-0.335c0.306-0.569,0.718-0.995,1.237-1.274c0.52-0.281,1.137-0.421,1.853-0.421c0.962,0,1.665,0.219,2.108,0.656
		C98.528,21.468,98.75,22.158,98.75,23.102z M95.414,26.786c0.692,0,1.342-0.289,1.948-0.868v-0.841
		c-0.615-0.479-1.23-0.718-1.846-0.718c-0.374,0-0.696,0.117-0.967,0.352c-0.271,0.235-0.407,0.53-0.407,0.886
		c0,0.342,0.118,0.626,0.355,0.851C94.735,26.674,95.04,26.786,95.414,26.786z"/>
	<path d="M103.371,24.865v1.627h1.565v1.258h-4.409v-1.258h1.442V21.83h-1.442v-1.265h2.563v1.627
		c0.287-0.643,0.644-1.091,1.07-1.343c0.426-0.254,1.035-0.38,1.828-0.38h0.321v1.429h-0.308c-0.766,0-1.335,0.101-1.709,0.301
		s-0.621,0.504-0.742,0.909C103.432,23.514,103.371,24.1,103.371,24.865z"/>
</g>
</svg>
