<?xml version="1.0" encoding="utf-8"?>
<!-- Generator: Adobe Illustrator 16.0.0, SVG Export Plug-In . SVG Version: 6.00 Build 0)  -->
<!DOCTYPE svg PUBLIC "-//W3C//DTD SVG 1.1//EN" "http://www.w3.org/Graphics/SVG/1.1/DTD/svg11.dtd">
<svg version="1.1" id="Layer_1" xmlns="http://www.w3.org/2000/svg" xmlns:xlink="http://www.w3.org/1999/xlink" x="0px" y="0px"
	 width="117px" height="40px" viewBox="0 0 117 40" enable-background="new 0 0 117 40" xml:space="preserve">
<path fill="#8AC4EB" d="M30.02,0l-7.725,8.049h19.084L49.104,0H30.02z"/>
<path fill="none" stroke="#28234A" stroke-width="1.2182" stroke-linecap="round" stroke-linejoin="round" d="M14.054,3.331
	l-7.237,7.216h25.099l7.237-7.216H14.054z"/>
<g>
	<path d="M6.151,21.732v5.25c0,0.926,0.177,1.603,0.53,2.031c0.353,0.428,0.872,0.643,1.555,0.643c0.693,0,1.22-0.213,1.583-0.637
		c0.363-0.424,0.543-1.099,0.543-2.022v-5.265H9.159v-1.284h4.033v1.284h-1.285v5.408c0,1.229-0.311,2.168-0.933,2.812
		c-0.622,0.646-1.535,0.968-2.738,0.968c-1.212,0-2.123-0.32-2.731-0.96c-0.608-0.642-0.913-1.61-0.913-2.909v-5.318H3.321v-1.284
		h4.047v1.284H6.151L6.151,21.732z"/>
	<path d="M20.862,25.917v3.575h1.203v1.258h-2.618v-4.744c0-0.451-0.065-0.773-0.195-0.971s-0.343-0.294-0.639-0.294
		c-0.629,0-1.335,0.31-2.119,0.93v3.821h1.237v1.258h-3.896v-1.258H15.1V24.83h-1.265v-1.266h2.659v0.869
		c0.879-0.644,1.707-0.965,2.481-0.965c0.643,0,1.118,0.198,1.425,0.596C20.707,24.461,20.862,25.078,20.862,25.917z"/>
	<path d="M27.555,21.891l-1.258,0.191c-0.041-0.465-0.219-0.697-0.533-0.697c-0.223,0-0.373,0.08-0.448,0.239
		c-0.075,0.159-0.113,0.444-0.113,0.854v1.086h1.23v1.266h-1.23v4.662h1.354v1.258h-3.821v-1.258h1.053V24.83h-1.053v-1.266h1.053
		v-1.113c0-0.656,0.161-1.189,0.482-1.6c0.321-0.412,0.796-0.615,1.425-0.615c0.52,0,0.938,0.138,1.254,0.414
		C27.266,20.926,27.468,21.339,27.555,21.891z"/>
	<path d="M30.508,29.643c0.633,0,1.319-0.308,2.058-0.923v-3.89h-1.271v-1.266h2.687v5.928h1.23v1.258h-2.646v-0.827
		c-0.83,0.634-1.618,0.95-2.365,0.95c-0.674,0-1.172-0.2-1.494-0.602c-0.322-0.402-0.482-1.066-0.482-1.996V24.83H27.22v-1.266h2.42
		v5.004c0,0.369,0.067,0.642,0.202,0.813C29.977,29.555,30.198,29.643,30.508,29.643z"/>
	<path d="M38.67,27.865v1.627h1.565v1.258h-4.409v-1.258h1.442V24.83h-1.442v-1.266h2.563v1.627c0.287-0.643,0.644-1.09,1.07-1.342
		c0.426-0.255,1.036-0.381,1.829-0.381h0.321v1.43h-0.308c-0.766,0-1.335,0.101-1.709,0.301c-0.374,0.199-0.621,0.504-0.742,0.908
		C38.729,26.514,38.67,27.1,38.67,27.865z"/>
	<path d="M45.909,29.492v1.258h-3.78v-1.258H43.4v-7.801h-1.271v-1.243h2.687v9.044H45.909z"/>
	<path d="M57.764,23.107c0,0.481-0.107,0.908-0.322,1.277c-0.213,0.369-0.525,0.651-0.937,0.848c0.579,0.205,1.021,0.525,1.33,0.961
		c0.308,0.436,0.461,0.951,0.461,1.549c0,0.979-0.358,1.727-1.075,2.238c-0.72,0.514-1.793,0.77-3.225,0.77h-3.568v-1.285h1.271
		v-7.73h-1.271v-1.285h3.623c1.254,0,2.186,0.219,2.797,0.656C57.457,21.542,57.764,22.209,57.764,23.107z M56.225,23.189
		c0-0.483-0.17-0.848-0.513-1.09c-0.342-0.244-0.825-0.367-1.448-0.367h-1.02v3.009h1.031
		C55.575,24.741,56.225,24.225,56.225,23.189z M56.717,27.715c0-0.568-0.201-0.994-0.604-1.275c-0.404-0.278-1.029-0.42-1.877-0.42
		h-0.991v3.445h0.614c0.615,0,1.121-0.037,1.519-0.113c0.396-0.074,0.72-0.237,0.968-0.492
		C56.593,28.607,56.717,28.227,56.717,27.715z"/>
	<path d="M65.426,26.102v3.392h1.203v1.258h-2.447v-0.882c-0.684,0.67-1.443,1.005-2.283,1.005c-0.441,0-0.846-0.103-1.213-0.308
		s-0.66-0.479-0.881-0.823c-0.223-0.345-0.332-0.728-0.332-1.146c0-0.451,0.121-0.854,0.364-1.207
		c0.244-0.354,0.573-0.625,0.988-0.816s0.832-0.287,1.251-0.287c0.701,0,1.355,0.205,1.962,0.615V26.13
		c0-0.562-0.118-0.962-0.354-1.203c-0.238-0.241-0.627-0.362-1.17-0.362c-0.383,0-0.703,0.069-0.959,0.209
		c-0.259,0.14-0.472,0.351-0.641,0.633l-1.354-0.336c0.306-0.568,0.717-0.994,1.236-1.273c0.52-0.281,1.137-0.421,1.854-0.421
		c0.961,0,1.664,0.219,2.107,0.656C65.204,24.468,65.426,25.158,65.426,26.102z M62.09,29.786c0.692,0,1.342-0.289,1.948-0.868
		v-0.841c-0.615-0.479-1.229-0.718-1.847-0.718c-0.373,0-0.695,0.117-0.967,0.352c-0.271,0.234-0.406,0.53-0.406,0.887
		c0,0.342,0.117,0.625,0.354,0.851C61.411,29.674,61.716,29.786,62.09,29.786z"/>
	<path d="M69.008,29.588h3.295v-1.482h1.23v2.646h-6.174v-1.162l4.479-4.847h-2.939v1.374h-1.203v-2.55h5.839v1.265L69.008,29.588z"
		/>
	<path d="M80.629,26.102v3.392h1.203v1.258h-2.447v-0.882c-0.684,0.67-1.443,1.005-2.283,1.005c-0.441,0-0.847-0.103-1.213-0.308
		c-0.367-0.205-0.66-0.479-0.882-0.823c-0.222-0.345-0.332-0.728-0.332-1.146c0-0.451,0.122-0.854,0.365-1.207
		c0.244-0.354,0.573-0.625,0.987-0.816c0.416-0.191,0.832-0.287,1.252-0.287c0.701,0,1.354,0.205,1.962,0.615V26.13
		c0-0.562-0.118-0.962-0.354-1.203c-0.238-0.241-0.628-0.362-1.17-0.362c-0.383,0-0.703,0.069-0.96,0.209
		c-0.258,0.14-0.471,0.351-0.64,0.633l-1.354-0.336c0.305-0.568,0.717-0.994,1.236-1.273c0.52-0.281,1.137-0.421,1.854-0.421
		c0.961,0,1.664,0.219,2.107,0.656C80.407,24.468,80.629,25.158,80.629,26.102z M77.293,29.786c0.691,0,1.342-0.289,1.948-0.868
		v-0.841c-0.615-0.479-1.229-0.718-1.847-0.718c-0.373,0-0.695,0.117-0.967,0.352c-0.271,0.234-0.406,0.53-0.406,0.887
		c0,0.342,0.117,0.625,0.354,0.851S76.919,29.786,77.293,29.786z"/>
	<path d="M88.75,26.102v3.392h1.203v1.258h-2.447v-0.882c-0.684,0.67-1.443,1.005-2.283,1.005c-0.441,0-0.847-0.103-1.214-0.308
		c-0.366-0.205-0.659-0.479-0.881-0.823c-0.222-0.345-0.332-0.728-0.332-1.146c0-0.451,0.122-0.854,0.365-1.207
		c0.243-0.354,0.573-0.625,0.987-0.816c0.416-0.191,0.832-0.287,1.252-0.287c0.701,0,1.354,0.205,1.961,0.615V26.13
		c0-0.562-0.117-0.962-0.354-1.203s-0.627-0.362-1.169-0.362c-0.383,0-0.703,0.069-0.96,0.209c-0.258,0.14-0.471,0.351-0.64,0.633
		l-1.354-0.336c0.306-0.568,0.718-0.994,1.237-1.273c0.52-0.281,1.137-0.421,1.854-0.421c0.961,0,1.664,0.219,2.107,0.656
		C88.527,24.468,88.75,25.158,88.75,26.102z M85.414,29.786c0.691,0,1.342-0.289,1.947-0.868v-0.841
		c-0.614-0.479-1.229-0.718-1.846-0.718c-0.373,0-0.695,0.117-0.967,0.352s-0.406,0.53-0.406,0.887c0,0.342,0.117,0.625,0.354,0.851
		S85.04,29.786,85.414,29.786z"/>
	<path d="M93.371,27.865v1.627h1.564v1.258h-4.408v-1.258h1.441V24.83h-1.441v-1.266h2.562v1.627c0.287-0.643,0.645-1.09,1.07-1.342
		c0.426-0.255,1.035-0.381,1.828-0.381h0.32v1.43h-0.308c-0.767,0-1.335,0.101-1.709,0.301c-0.374,0.199-0.621,0.504-0.742,0.908
		C93.432,26.514,93.371,27.1,93.371,27.865z"/>
</g>
</svg>
